<?xml version="1.0" encoding="utf-8"?>
<!-- Generator: Adobe Illustrator 26.4.0, SVG Export Plug-In . SVG Version: 6.00 Build 0)  -->
<svg version="1.1" id="Layer_1" xmlns="http://www.w3.org/2000/svg" xmlns:xlink="http://www.w3.org/1999/xlink" x="0px" y="0px"
	 viewBox="0 0 792 201.16" style="enable-background:new 0 0 792 201.16;" xml:space="preserve">
<style type="text/css">
	.st0{opacity:0.5;fill:#ED1C24;enable-background:new    ;}
	.st1{opacity:0.6;fill:#F15A29;enable-background:new    ;}
	.st2{opacity:0.6;fill:#FBB040;enable-background:new    ;}
	.st3{fill:#FFFFFF;}
</style>
<circle class="st0" cx="293.36" cy="98.25" r="68.04"/>
<circle class="st1" cx="397.57" cy="98.74" r="68.04"/>
<ellipse transform="matrix(0.7071 -0.7071 0.7071 0.7071 75.2115 381.0593)" class="st2" cx="497.58" cy="99.74" rx="68.04" ry="68.04"/>
<g>
	<g>
		<path class="st3" d="M263.71,63.86c5.73-0.93,13.19-1.48,20.98-1.48c13.06,0,21.59,2.41,28.19,7.39
			c7.15,5.34,11.64,13.73,11.64,25.9c0,13.19-4.77,22.31-11.38,27.89c-7.24,6.03-18.33,8.91-31.75,8.91
			c-8.09,0-13.85-0.48-17.68-1.02V63.86L263.71,63.86z M279.26,120.03c1.36,0.25,3.53,0.27,5.43,0.27
			c14.1,0.12,23.36-7.67,23.36-24.12c0.03-14.3-8.34-21.82-21.72-21.82c-3.4,0-5.69,0.29-7.07,0.59V120.03z"/>
	</g>
</g>
<g>
	<g>
		<path class="st3" d="M416.02,102.63H390.7V119h28.31v12.75h-43.88V62.92h42.41v12.75H390.7v14.34h25.33v12.62H416.02z"/>
	</g>
</g>
<g>
	<g>
		<path class="st3" d="M480.29,62.92h15.56v55.79h27.39v13.04h-42.95V62.92z"/>
	</g>
</g>
</svg>
